<?xml version="1.0" standalone="no"?><!DOCTYPE svg PUBLIC "-//W3C//DTD SVG 1.1//EN" "http://www.w3.org/Graphics/SVG/1.1/DTD/svg11.dtd"><svg t="1585817705839" class="icon" viewBox="0 0 1024 1024" version="1.1" xmlns="http://www.w3.org/2000/svg" p-id="1887" xmlns:xlink="http://www.w3.org/1999/xlink" width="200" height="200"><defs><style type="text/css"></style></defs><path fill="#00ffbf" d="M135.36 325.472c89.44-76.8 160.16-137.568 351.84-29.184 92.096 52.064 166.4 71.616 228.256 71.616 108.288 0 178.432-60.256 239.104-112.32 21.664-18.592 24.48-51.616 6.24-73.664s-50.496-24.928-72.128-6.336c-89.44 76.864-160.096 137.568-351.904 29.184-253.344-143.104-372.032-41.152-467.36 40.768-21.6 18.592-24.416 51.552-6.24 73.632s50.528 24.992 72.192 6.336z m753.28 111.584c-89.44 76.8-160.096 137.568-351.904 29.184-253.28-143.104-371.968-41.152-467.296 40.704-21.664 18.592-24.48 51.616-6.24 73.664s50.496 24.928 72.128 6.336c89.44-76.864 160.16-137.568 351.84-29.248 92.096 52.064 166.4 71.68 228.256 71.68 108.288 0 178.432-60.256 239.104-112.384 21.664-18.592 24.48-51.552 6.24-73.632-18.176-22.112-50.496-24.928-72.128-6.336z m0 261.472c-89.44 76.8-160.096 137.568-351.904 29.184-253.28-143.104-372.032-41.216-467.296 40.704-21.664 18.592-24.48 51.616-6.24 73.664s50.496 24.928 72.128 6.336c89.504-76.864 160.16-137.536 351.904-29.248 92.096 52.064 166.4 71.68 228.256 71.68 108.288 0 178.432-60.256 239.104-112.384 21.664-18.528 24.48-51.552 6.24-73.632s-50.528-24.992-72.192-6.336z" p-id="1888"></path></svg>
