<?xml version="1.0" standalone="no"?><!DOCTYPE svg PUBLIC "-//W3C//DTD SVG 1.1//EN" "http://www.w3.org/Graphics/SVG/1.1/DTD/svg11.dtd"><svg t="1585816289699" class="icon" viewBox="0 0 1024 1024" version="1.1" xmlns="http://www.w3.org/2000/svg" p-id="2720" xmlns:xlink="http://www.w3.org/1999/xlink" width="200" height="200"><defs><style type="text/css"></style></defs><path fill="#00ffc0" d="M169.65 852.22V159.18c0-26.89-22-48.88-48.88-48.88h-7.67c-26.89 0-48.88 22-48.88 48.88v693.04c0 0.34 0.28 0.62 0.62 0.62h104.19c0.34 0.01 0.62-0.27 0.62-0.62z" p-id="2721"></path><path fill="#00ffc0" d="M100.17 895.48h810.28c26.89 0 48.88-22 48.88-48.88v-7.67c0-26.89-22-48.88-48.88-48.88H66.38c-1.08 0-1.96 0.88-1.96 1.96v67.73c0 19.65 16.09 35.74 35.75 35.74z m309.59-144.99H252.28v-342.8c0-40.32 32.69-73.01 73.01-73.01h11.46c40.32 0 73.01 32.69 73.01 73.01v342.8z m240.11 0H492.39V239.51c0-40.32 32.69-73.01 73.01-73.01h11.46c40.32 0 73.01 32.69 73.01 73.01v510.98z m234 0.07H726.4V572.8c0-40.32 32.69-73.01 73.01-73.01h11.46c40.32 0 73.01 32.69 73.01 73.01v177.76z" p-id="2722"></path></svg>
