<?xml version="1.0" standalone="no"?><!DOCTYPE svg PUBLIC "-//W3C//DTD SVG 1.1//EN" "http://www.w3.org/Graphics/SVG/1.1/DTD/svg11.dtd"><svg t="1585816391227" class="icon" viewBox="0 0 1024 1024" version="1.1" xmlns="http://www.w3.org/2000/svg" p-id="2960" xmlns:xlink="http://www.w3.org/1999/xlink" width="200" height="200"><defs><style type="text/css"></style></defs><path fill="#00ffc0" d="M950.856071 475.428536H621.713393a73.142929 73.142929 0 0 1-73.142929-73.142929V73.142929A73.142929 73.142929 0 0 1 621.713393 0h329.142678A73.142929 73.142929 0 0 1 1023.999 73.142929v329.142678a73.142929 73.142929 0 0 1-73.142929 73.142929zM658.285357 73.142929a36.570964 36.570964 0 0 0-36.571964 36.570964v255.99975a36.570964 36.570964 0 0 0 36.571964 36.571964h255.99975a36.570964 36.570964 0 0 0 36.570964-36.571964v-255.99975a36.570964 36.570964 0 0 0-36.570964-36.570964z" p-id="2961"></path><path fill="#00ffc0" d="M694.856321 109.713893h182.856822q36.571964 0 36.571964 36.571964v182.856822q0 36.570964-36.571964 36.570964H694.856321q-36.570964 0-36.570964-36.570964V146.285857q0-36.571964 36.570964-36.571964zM402.285607 1023.999H73.142929A73.142929 73.142929 0 0 1 0 950.856071V621.713393a73.142929 73.142929 0 0 1 73.142929-73.142929h329.142678a73.142929 73.142929 0 0 1 73.142929 73.142929v329.142678A73.142929 73.142929 0 0 1 402.285607 1023.999zM109.713893 621.713393a36.570964 36.570964 0 0 0-36.570964 36.571964v255.99975a36.570964 36.570964 0 0 0 36.570964 36.570964h255.99975a36.570964 36.570964 0 0 0 36.571964-36.570964v-255.99975a36.570964 36.570964 0 0 0-36.571964-36.571964z" p-id="2962"></path><path fill="#00ffc0" d="M146.285857 658.285357h182.856822q36.570964 0 36.570964 36.570964v182.856822q0 36.571964-36.570964 36.571964H146.285857q-36.571964 0-36.571964-36.571964V694.856321q0-36.570964 36.571964-36.570964zM402.285607 475.428536H73.142929A73.434928 73.434928 0 0 1 0.804999 412.854597 70.289931 70.289931 0 0 1 0 402.284607V73.143929A73.142929 73.142929 0 0 1 73.142929 0H255.99975l43.226958 65.425936L157.512846 181.759823l145.005859 95.743906-21.942979 151.076852 0.475 3.144997 90.953911-165.339838-121.782881-94.499908 123.500879-102.6199L334.372673 0h67.912934a73.142929 73.142929 0 0 1 73.142929 73.142929v329.142678a69.485932 69.485932 0 0 1-0.768 10.60499 73.434928 73.434928 0 0 1-72.374929 62.537939zM950.856071 1023.999H621.713393a73.142929 73.142929 0 0 1-73.142929-73.142929V621.713393a73.142929 73.142929 0 0 1 73.142929-73.142929h329.142678A73.142929 73.142929 0 0 1 1023.999 621.713393v329.142678A73.142929 73.142929 0 0 1 950.856071 1023.999zM658.285357 621.713393a36.570964 36.570964 0 0 0-36.571964 36.571964v255.99975a36.570964 36.570964 0 0 0 36.571964 36.570964h255.99975a36.570964 36.570964 0 0 0 36.570964-36.570964v-255.99975a36.570964 36.570964 0 0 0-36.570964-36.571964z" p-id="2963"></path></svg>
