<?xml version="1.0" standalone="no"?><!DOCTYPE svg PUBLIC "-//W3C//DTD SVG 1.1//EN" "http://www.w3.org/Graphics/SVG/1.1/DTD/svg11.dtd"><svg t="1585816777548" class="icon" viewBox="0 0 1024 1024" version="1.1" xmlns="http://www.w3.org/2000/svg" p-id="3569" xmlns:xlink="http://www.w3.org/1999/xlink" width="200" height="200"><defs><style type="text/css"></style></defs><path d="M979.968 201.216H50.176C25.088 201.216 0 220.16 0 251.392s25.088 44.032 50.176 44.032h100.352L219.648 942.08c0 25.088 25.088 44.032 44.032 44.032h508.928c25.088 0 44.032-18.944 44.032-44.032L885.76 295.424h88.064c25.088 0 50.176-18.944 50.176-50.176s-18.944-44.032-44.032-44.032zM728.576 885.76H307.712L245.248 295.424h546.304L728.576 885.76zM313.856 132.096h401.92c25.088 0 50.176-18.944 50.176-50.176s-25.088-44.032-50.176-44.032H313.856c-25.088 0-50.176 18.944-50.176 50.176s25.088 44.032 50.176 44.032z" fill="#ffffff" p-id="3570"></path><path d="M584.192 741.376c31.232 0 50.176-18.944 50.176-44.032L665.6 414.72c0-25.088-12.8-50.176-44.032-50.176-25.088-6.144-50.176 12.8-50.176 44.032l-31.232 282.624c0 25.088 18.944 50.176 44.032 50.176z" fill="#ffffff" p-id="3571"></path></svg>
