<?xml version="1.0" standalone="no"?><!DOCTYPE svg PUBLIC "-//W3C//DTD SVG 1.1//EN" "http://www.w3.org/Graphics/SVG/1.1/DTD/svg11.dtd"><svg t="1585816766635" class="icon" viewBox="0 0 1024 1024" version="1.1" xmlns="http://www.w3.org/2000/svg" p-id="3320" xmlns:xlink="http://www.w3.org/1999/xlink" width="200" height="200"><defs><style type="text/css"></style></defs><path d="M479.23315 779.27259c18.431353 18.431353 48.638293 18.431353 67.581628 0l263.158763-263.670745c18.431353-18.431353 18.431353-48.638293 0-67.581628-18.431353-18.431353-48.638293-18.431353-67.581628 0L560.126311 629.773837V46.114324c-1.023964-26.111084-23.039191-47.102347-49.150275-46.078383-25.087119 1.023964-45.054419 20.991263-46.078383 46.078383v584.171495L283.144033 448.532199c-18.431353-18.431353-48.638293-18.943335-67.581628 0-18.431353 18.431353-18.943335 48.638293 0 67.581628l263.670745 263.158763z" fill="#ffffff" p-id="3321"></path><path d="M931.313282 627.213927V890.884672c0 24.063155-19.455317 44.030455-44.030454 44.030455H136.20519c-24.063155 0-44.030455-19.455317-44.030454-44.030455v-263.670745c0-24.063155-19.455317-44.030455-44.030455-44.030454s-44.030455 19.455317-44.030454 44.030454v307.7012c0 48.638293 39.422616 88.060909 88.060909 88.060909h838.626564c48.638293 0 88.060909-39.422616 88.060909-88.060909v-307.7012c0-24.063155-19.455317-44.030455-44.030454-44.030454-24.063155 0-43.518473 19.455317-43.518473 44.030454z" fill="#ffffff" p-id="3322"></path></svg>
