<?xml version="1.0" standalone="no"?><!DOCTYPE svg PUBLIC "-//W3C//DTD SVG 1.1//EN" "http://www.w3.org/Graphics/SVG/1.1/DTD/svg11.dtd"><svg t="1586501404462" class="icon" viewBox="0 0 1024 1024" version="1.1" xmlns="http://www.w3.org/2000/svg" p-id="4836" xmlns:xlink="http://www.w3.org/1999/xlink" width="200" height="200"><defs><style type="text/css"></style></defs><path fill="#00ffc0" d="M841.216 0c40.448 0 73.216 32.768 73.216 72.704 0 36.352-26.112 67.072-61.952 72.704l-8.192 1.024-48.64 76.288c119.808 81.92 191.488 217.6 191.488 362.496v292.352c0 80.896-65.536 146.432-146.432 146.432H182.784c-80.896 0-146.432-65.536-146.432-146.432v-292.352c0-144.896 71.68-281.088 191.488-362.496L179.2 146.432c-40.448-2.048-71.68-35.84-69.632-76.288s35.84-71.68 76.288-69.632 71.68 35.84 69.632 76.288c-0.512 12.8-4.608 25.088-11.264 35.84L291.84 186.368c57.344-26.624 120.32-40.448 183.808-40.448h73.216c65.536 0 128 14.336 183.808 39.936l47.104-74.24c-21.504-34.304-11.264-79.36 23.04-100.864C814.08 4.096 827.392 0 841.216 0z m-292.864 219.648H475.648c-201.728 0-365.568 163.84-365.568 365.568v292.352c0 40.448 32.768 73.216 73.216 73.216h658.432c40.448 0 73.216-32.768 73.216-73.216v-292.352c-0.512-202.24-164.352-365.568-366.592-365.568z" p-id="4837"></path><path fill="#00ffc0"   d="M329.216 438.784h365.568c80.896 0 146.432 65.536 146.432 146.432s-65.536 146.432-146.432 146.432H329.216c-80.896 0-146.432-65.536-146.432-146.432s65.536-146.432 146.432-146.432z m0 73.216c-40.448 0-73.216 32.768-73.216 73.216s32.768 73.216 73.216 73.216h365.568c40.448 0 73.216-32.768 73.216-73.216s-32.768-73.216-73.216-73.216H329.216z" p-id="4838"></path></svg>
