<?xml version="1.0" standalone="no"?><!DOCTYPE svg PUBLIC "-//W3C//DTD SVG 1.1//EN" "http://www.w3.org/Graphics/SVG/1.1/DTD/svg11.dtd"><svg t="1585811303599" class="icon" viewBox="0 0 1024 1024" version="1.1" xmlns="http://www.w3.org/2000/svg" p-id="5289" xmlns:xlink="http://www.w3.org/1999/xlink" width="200" height="200"><defs><style type="text/css"></style></defs><path d="M317.793103 694.948526c20.981509 20.981509 54.756622 20.981509 75.738131 0L982.548726 106.442779c20.981509-20.981509 20.981509-55.268366 0-76.249875s-55.268366-20.981509-75.738131 0l-589.017492 588.505747c-20.981509 20.981509-20.981509 54.756622 0 76.249875z" fill="#00FFBF" p-id="5290"></path><path d="M969.755122 430.888556c-29.681159 0-53.733133 24.051974-53.733133 53.733133V916.021989H107.978011V107.466267h431.4003c29.681159 0 53.733133-24.051974 53.733133-53.733134S569.05947 0 539.378311 0H53.733133C24.051974 0 0 23.54023 0 53.221389v917.045478c0 29.681159 23.54023 53.221389 53.221389 53.733133h917.045478c29.681159 0 53.221389-23.54023 53.733133-53.221389v-486.156922c-0.511744-29.681159-24.563718-53.733133-54.244878-53.733133z" fill="#00FFBF" p-id="5291"></path></svg>