<?xml version="1.0" standalone="no"?><!DOCTYPE svg PUBLIC "-//W3C//DTD SVG 1.1//EN" "http://www.w3.org/Graphics/SVG/1.1/DTD/svg11.dtd"><svg t="1585811297196" class="icon" viewBox="0 0 1024 1024" version="1.1" xmlns="http://www.w3.org/2000/svg" p-id="5170" xmlns:xlink="http://www.w3.org/1999/xlink" width="200" height="200"><defs><style type="text/css"></style></defs><path fill="#00ffc0" d="M1000.4 534.65l22.576 84.432H676.12l51.315 350.09-180.614 2.06-0.776-35.006H477.89l-0.777 35.005-180.587-2.059 51.302-350.09H1.024l22.575-84.431h332.442l8.204-45.302H33.857l20.521-84.439h324.23l45.15-352.141h73.828l-0.777 35.005h30.319l-0.784-35.005h73.839L645.34 404.91h324.275l20.521 84.44H659.704l8.212 45.3h332.485zM528.645 155.734h-33.35l-2.798 125.621h38.947l-2.799-125.621z m4.314 193.58H490.98l-2.847 127.68H535.8l-2.843-127.68z m4.358 195.634h-50.702l-2.842 127.68h56.393l-2.849-127.68z m-55.06 195.64l-2.849 127.68h65.123l-2.847-127.68h-59.427z" p-id="5171"></path></svg>
