<?xml version="1.0" standalone="no"?><!DOCTYPE svg PUBLIC "-//W3C//DTD SVG 1.1//EN" "http://www.w3.org/Graphics/SVG/1.1/DTD/svg11.dtd"><svg t="1585816387426" class="icon" viewBox="0 0 1024 1024" version="1.1" xmlns="http://www.w3.org/2000/svg" p-id="2840" xmlns:xlink="http://www.w3.org/1999/xlink" width="200" height="200"><defs><style type="text/css"></style></defs><path  d="M928.973 952.32H95.027C42.598 952.32 0 909.722 0 857.293V166.707C0 114.278 42.598 71.68 95.027 71.68h834.048c52.327 0 95.027 42.598 95.027 95.027v690.688c-0.102 52.327-42.7 94.925-95.13 94.925zM95.027 133.12c-18.534 0-33.587 15.053-33.587 33.587v690.688c0 18.535 15.053 33.587 33.587 33.587h834.048c18.535 0 33.587-15.052 33.587-33.587V166.707c0-18.534-15.052-33.587-33.587-33.587H95.027z" fill="#00ffc0" p-id="2841"></path><path d="M52.429 843.571L9.01 800.154l221.082-221.082c17.408-17.408 45.67-17.408 62.976 0l160.973 160.973 277.81-277.811c8.398-8.397 19.56-13.005 31.54-13.005 11.878 0 23.04 4.608 31.54 13.005l220.16 220.16-43.418 43.417L763.29 517.53 485.478 795.443c-17.408 17.408-45.67 17.408-62.976 0L261.53 634.47 52.429 843.571zM263.168 455.68c-50.79 0-92.16-41.37-92.16-92.16s41.37-92.16 92.16-92.16 92.16 41.37 92.16 92.16-41.37 92.16-92.16 92.16z m0-122.88c-16.896 0-30.72 13.824-30.72 30.72s13.824 30.72 30.72 30.72 30.72-13.824 30.72-30.72-13.824-30.72-30.72-30.72z" fill="#00ffc0" p-id="2842"></path></svg>
