<?xml version="1.0" standalone="no"?><!DOCTYPE svg PUBLIC "-//W3C//DTD SVG 1.1//EN" "http://www.w3.org/Graphics/SVG/1.1/DTD/svg11.dtd"><svg t="1585817708597" class="icon" viewBox="0 0 1271 1024" version="1.1" xmlns="http://www.w3.org/2000/svg" p-id="2006" xmlns:xlink="http://www.w3.org/1999/xlink" width="248.2421875" height="200"><defs><style type="text/css"></style></defs><path fill="#00ffbf" d="M95.161 585.34c-26.341 0-47.775 20.48-47.775 45.726 0 25.212 21.434 45.727 47.775 45.727 26.377 0 47.81-20.515 47.81-45.727 0-25.246-21.433-45.726-47.81-45.726z m181.637-73.199c-21.08 0-38.241 16.42-38.241 36.617 0 20.127 17.09 36.476 38.24 36.582 21.116 0 38.277-16.42 38.277-36.582 0-20.127-17.09-36.51-38.276-36.617z m-86.016-201.198c-36.935 0-66.913 28.743-66.913 64.018 0 35.31 30.013 64.053 66.913 64.053s66.913-28.743 66.913-64.053-30.014-64.018-66.913-64.018z m38.24-219.49c26.342 0 47.776-20.515 47.776-45.726S255.4 0 229.023 0c-26.342 0-47.81 20.515-47.81 45.727 0 25.247 21.433 45.727 47.81 45.727z m850.839 73.164c21.08 0 38.241-16.42 38.241-36.582 0-20.127-17.055-36.475-38.241-36.581-21.08 0-38.241 16.42-38.241 36.581 0 20.127 17.09 36.476 38.241 36.582zM783.466 256.07c36.935 0 66.948-28.708 66.948-64.018s-30.013-64.018-66.913-64.018-66.913 28.708-66.913 64.018 30.014 64.018 66.913 64.018zM506.28 475.56c-31.78 0.141-57.45 24.717-57.38 54.907-0.07 30.19 25.6 54.731 57.344 54.873 31.638 0 57.38-24.647 57.38-54.873 0.07-30.225-25.6-54.73-57.38-54.872z m0-310.943c-31.78 0.141-57.45 24.682-57.38 54.872-0.07 30.226 25.6 54.766 57.344 54.908 31.638 0 57.38-24.647 57.38-54.908 0.07-30.19-25.6-54.73-57.38-54.872z m487.53 475.595c-36.9 0-66.878 28.707-66.878 64.018s30.014 64.017 66.878 64.017c36.899 0 66.913-28.707 66.913-64.017s-30.014-64.018-66.913-64.018z m143.395-237.815c-31.78 0.14-57.38 24.717-57.344 54.872-0.035 30.19 25.6 54.731 57.344 54.872 31.638 0 57.38-24.611 57.38-54.872 0.07-30.19-25.6-54.731-57.38-54.872zM859.983 384.14c-26.341 0-47.81 20.48-47.81 45.692 0 25.247 21.469 45.762 47.81 45.762 26.342 0 47.775-20.515 47.775-45.762 0-25.212-21.433-45.692-47.775-45.692z m-181.671 347.49c-21.116 0-38.277 16.419-38.277 36.58 0 20.128 17.09 36.476 38.277 36.582 21.08 0 38.24-16.419 38.24-36.581 0-20.127-17.09-36.511-38.24-36.582z m76.482-164.653c21.186 0.106 38.276 16.455 38.241 36.617 0 20.127-17.16 36.582-38.241 36.582-21.186-0.106-38.276-16.455-38.241-36.582 0-20.197 17.16-36.617 38.24-36.617zM933.5 1024c-132.52 0-224.998-52.612-231.283-56.355-383.223-234.92-623.263-5.473-633.327 4.413-14.689 14.478-38.84 14.866-54.024 0.919a35.452 35.452 0 0 1-1.095-51.624c2.825-2.825 292.123-283.613 729.017-15.678 7.98 4.59 217.088 121.644 450.384-41.066 8.157-5.72 18.432-8.121 28.46-6.603 10.028 1.518 18.997 6.78 24.964 14.583 12.43 16.314 8.687 39.195-8.403 51.13C1127.953 1000.589 1021.88 1024 933.5 1024z" p-id="2007"></path></svg>
