<?xml version="1.0" standalone="no"?><!DOCTYPE svg PUBLIC "-//W3C//DTD SVG 1.1//EN" "http://www.w3.org/Graphics/SVG/1.1/DTD/svg11.dtd"><svg t="1585816915143" class="icon" viewBox="0 0 1024 1024" version="1.1" xmlns="http://www.w3.org/2000/svg" p-id="3689" xmlns:xlink="http://www.w3.org/1999/xlink" width="200" height="200"><defs><style type="text/css"></style></defs><path d="M511.3 960.2c-247 0-448-201-448-448s201-448 448-448c137.8 0 266 62.1 351.6 170.3 14.8 18.8 11.7 46-7.1 60.9-18.8 14.8-46.1 11.6-60.9-7.1-69.1-87.3-172.4-137.4-283.6-137.4C312.1 150.9 150 313 150 512.2s162.1 361.3 361.3 361.3 361.3-162.1 361.3-361.3c0-23.9 19.4-43.4 43.4-43.4s43.4 19.4 43.4 43.4c-0.1 247.1-201 448-448.1 448z" fill="#ffffff" p-id="3690"></path><path d="M702.3 338.5c-22.4 0-41.3-17.2-43.2-39.9-1.9-23.9 15.8-44.8 39.7-46.7l108.5-8.8 1.3-108.8c0.3-23.8 19.6-42.8 43.4-42.8h0.5c23.9 0.3 43.1 20 42.8 43.9L893 320.1l-43.4 6.6-143.9 11.7c-1.1 0.1-2.3 0.1-3.4 0.1z" fill="#ffffff" p-id="3691"></path></svg>
