<?xml version="1.0" standalone="no"?><!DOCTYPE svg PUBLIC "-//W3C//DTD SVG 1.1//EN" "http://www.w3.org/Graphics/SVG/1.1/DTD/svg11.dtd"><svg t="1585816744728" class="icon" viewBox="0 0 1024 1024" version="1.1" xmlns="http://www.w3.org/2000/svg" p-id="3081" xmlns:xlink="http://www.w3.org/1999/xlink" width="200" height="200"><defs><style type="text/css"></style></defs><path d="M989.696 822.272L867.84 700.416c-24.576-24.576-58.368-36.864-92.672-34.304 114.688-165.376 97.792-394.24-49.664-541.696-165.888-165.888-435.2-165.888-601.088 0-165.888 165.888-165.888 435.2 0 601.088 147.456 147.456 376.32 163.84 541.696 49.152-2.56 33.28 8.704 67.584 34.304 92.672l121.856 121.856c46.08 46.08 121.344 46.08 167.424 0 46.08-45.568 46.08-120.832 0-166.912zM660.48 660.48c-130.048 130.048-340.48 130.048-470.528 0s-130.048-340.48 0-470.528 340.48-130.048 470.528 0c130.048 129.536 130.048 340.48 0 470.528z" fill="#00ffbf" p-id="3082"></path></svg>
