<?xml version="1.0" standalone="no"?><!DOCTYPE svg PUBLIC "-//W3C//DTD SVG 1.1//EN" "http://www.w3.org/Graphics/SVG/1.1/DTD/svg11.dtd"><svg t="1585811345703" class="icon" viewBox="0 0 1024 1024" version="1.1" xmlns="http://www.w3.org/2000/svg" p-id="5892" xmlns:xlink="http://www.w3.org/1999/xlink" width="200" height="200"><defs><style type="text/css"></style></defs><path d="M512 0C229.376 0 0 229.376 0 512s229.376 512 512 512 512-229.376 512-512S794.624 0 512 0z m319.488 831.488c-41.472 41.472-90.112 74.24-143.872 96.768-55.808 23.552-114.688 35.328-176.128 35.328s-120.32-11.776-176.128-35.328c-53.76-22.528-102.4-55.296-143.872-96.768s-74.24-90.112-96.768-143.872c-23.552-55.808-35.328-114.688-35.328-176.128s11.776-120.32 35.328-176.128c22.528-53.76 55.296-102.4 96.768-143.872S281.6 117.248 335.36 94.72c55.808-23.552 114.688-35.328 176.128-35.328s120.32 11.776 176.128 35.328c53.76 22.528 102.4 55.296 143.872 96.768 41.472 41.472 74.24 90.112 96.768 143.872 23.552 55.808 35.328 114.688 35.328 176.128s-11.776 120.32-35.328 176.128c-22.528 54.272-55.296 102.4-96.768 143.872z" fill="#00FFBF" p-id="5893"></path><path d="M710.656 320l-278.016 278.016-119.296-119.296c-19.456-19.456-51.2-19.456-70.656 0-19.456 19.456-19.456 51.2 0 70.656l154.624 154.624c9.728 9.728 22.528 14.848 35.328 14.848s25.6-5.12 35.328-14.848l313.344-313.344c19.456-19.456 19.456-51.2 0-70.656s-51.2-19.456-70.656 0z" fill="#00FFBF" p-id="5894"></path></svg>