<?xml version="1.0" standalone="no"?><!DOCTYPE svg PUBLIC "-//W3C//DTD SVG 1.1//EN" "http://www.w3.org/Graphics/SVG/1.1/DTD/svg11.dtd"><svg t="1585816763571" class="icon" viewBox="0 0 1024 1024" version="1.1" xmlns="http://www.w3.org/2000/svg" p-id="3200" xmlns:xlink="http://www.w3.org/1999/xlink" width="200" height="200"><defs><style type="text/css"></style></defs><path d="M546.456 14.017a47.665 47.665 0 0 0-67.479 0L215.564 277.482a47.665 47.665 0 1 0 67.427 67.428l182.06-182.01v584.272a47.717 47.717 0 0 0 95.382 0V162.85l181.958 182.06a47.665 47.665 0 1 0 67.581-67.377L546.456 14.017z" fill="#ffffff" p-id="3201"></path><path d="M931.21 627.113V891.04c0 24.319-19.66 44.03-44.031 44.03H136.36a43.928 43.928 0 0 1-44.03-44.03V627.113a43.928 43.928 0 1 0-87.958 0v307.905c0 48.536 39.422 87.958 88.01 87.958H931.26a88.06 88.06 0 0 0 87.959-87.958V627.113a43.928 43.928 0 1 0-87.959 0z" fill="#ffffff" p-id="3202"></path></svg>
