<?xml version="1.0" standalone="no"?><!DOCTYPE svg PUBLIC "-//W3C//DTD SVG 1.1//EN" "http://www.w3.org/Graphics/SVG/1.1/DTD/svg11.dtd"><svg t="1585811339636" class="icon" viewBox="0 0 1024 1024" version="1.1" xmlns="http://www.w3.org/2000/svg" p-id="5772" xmlns:xlink="http://www.w3.org/1999/xlink" width="200" height="200"><defs><style type="text/css"></style></defs><path fill="#00ffc0" d="M236.165 950.308h-73.897V607.79c0-194.35 157.527-351.882 351.882-351.882S866.033 413.435 866.033 607.79v342.518h-81.26m-245.16-552.602L365.982 683.68h138.93l-34.702 214.45L643.84 612.158H504.914l34.698-214.45z m266.255-314.06c16.353 9.487 21.841 30.33 12.482 46.684l-62.413 108.472-58.916-34.202 62.413-108.472a34.294 34.294 0 0 1 20.598-15.98c8.735-2.242 17.971-1.12 25.836 3.497zM514.022 3.26c20.347 0 36.946 15.355 36.946 34.453v122.952h-73.892V37.714c0-19.103 16.605-34.453 36.946-34.453zM222.433 83.645a34.002 34.002 0 0 1 25.84-3.369 33.93 33.93 0 0 1 20.599 15.98l62.412 108.472-58.915 34.202-62.413-108.595c-9.365-16.354-3.748-37.325 12.477-46.69zM8.858 297.974a34.294 34.294 0 0 1 20.597-15.98 34.028 34.028 0 0 1 25.841 3.37l108.099 62.663-34.08 59.167L21.218 344.53c-16.102-9.237-21.719-30.208-12.36-46.556z m1010.585 0c9.36 16.353 3.87 37.197-12.482 46.684l-108.099 62.664-34.079-59.167 108.099-62.664a34.002 34.002 0 0 1 25.84-3.369 33.541 33.541 0 0 1 20.721 15.852z" p-id="5773"></path><path fill="#00ffc0" d="M41.564 949.852h945.173c20.47 0 37.074 16.604 37.074 37.074S1007.206 1024 986.737 1024H41.564a37.079 37.079 0 0 1 0-74.148z" p-id="5774"></path></svg>
